<svg xmlns="http://www.w3.org/2000/svg" width="600" height="604.501" viewBox="0 0 600 604.501"><path fill="#a3bed1" d="M0 59.165L540.344 0 600 540.344 59.902 604.5z"/><path d="M90.508 237.766c-5.697 0-11.015-1.804-14.717-4.178l-2.184 6.932c3.418 2.279 10.16 4.178 16.331 4.178 15.098 0 22.315-8.64 22.315-18.516 0-9.4-5.413-14.623-16.238-18.801-8.83-3.418-12.724-6.362-12.724-12.344 0-4.367 3.324-9.59 12.06-9.59 5.792 0 10.064 1.804 12.059 3.039l2.279-6.742c-2.754-1.614-7.597-3.134-14.053-3.134-12.439 0-20.7 7.407-20.7 17.377 0 8.925 6.456 14.432 16.902 18.231 8.64 3.228 12.059 6.741 12.059 12.629 0 6.456-4.938 10.919-13.39 10.919zm29.806-6.267c0 6.647 4.748 13.199 14.053 13.199 6.552 0 11.49-3.228 14.053-6.837h.285l.665 5.792h7.502c-.476-3.133-.666-7.027-.666-11.014v-17.187c0-9.115-3.418-18.705-17.471-18.705-5.792 0-11.394 1.614-15.193 3.987l1.9 5.603c3.228-2.184 7.691-3.42 12.059-3.42 9.4-.093 10.445 6.838 10.445 10.54v.951c-17.757-.095-27.632 5.982-27.632 17.091zm27.821-11.299v7.976c0 .76-.094 1.71-.379 2.658-1.33 3.893-5.222 7.692-11.3 7.692-4.177 0-7.786-2.468-7.786-7.977 0-8.924 10.35-10.538 19.465-10.349zm20.692 23.453h14.434v-46.432h-14.434v46.432zm7.122-52.129c4.843 0 7.786-3.229 7.786-7.216-.095-4.083-2.943-7.217-7.596-7.217-4.653 0-7.692 3.134-7.692 7.217 0 3.987 2.944 7.216 7.502 7.216zm20.315 52.13h8.356v-27.632c0-1.424.19-2.849.57-3.893 1.519-4.653 5.792-8.546 11.204-8.546 7.882 0 10.636 6.172 10.636 13.579v26.491h1.077c-.539.082-1.088.163-1.593.25v86.774h19.704V299.1c1.826.392 4.176.522 6.784.522 11.744 0 21.793-3.001 28.578-9.264 5.349-4.829 8.091-12.267 8.091-20.878 0-8.613-3.654-15.92-9.396-20.357-2.907-2.325-6.524-4.071-10.917-5.245.374-.105.747-.21 1.054-.319l-.379-6.362c-1.234.38-2.564.57-4.843.57-4.653 0-6.267-3.228-6.267-8.925v-24.783h11.965v-6.362h-11.965V186.68l-8.165 2.469v8.546h-7.121v6.362h7.12v25.068c0 5.412.95 9.495 3.229 12.059.316.346.709.631 1.081.933-.562-.01-1.094-.041-1.672-.041-7.17 0-13.085.277-18.01.716v-26.486c0-15.762-9.875-19.56-16.237-19.56-7.596 0-12.913 4.272-15.193 8.545h-.19l-.475-7.596h-7.406c.285 3.799.38 7.596.38 12.439v33.518zm49.954 14.21c1.434-.39 4.176-.652 8.09-.652 10.047 0 15.658 4.828 15.658 12.918 0 8.874-6.525 14.224-17.094 14.224-3.001 0-4.958-.13-6.654-.521v-25.968zM128.341 350.68c0-7.011-2.911-12.303-7.542-15.744-5.425-4.499-12.833-6.483-24.344-6.483-7.94 0-16.01.795-21.037 1.984v87.588c3.836.53 9.923 1.057 17.86 1.057 14.555 0 24.61-2.645 30.697-8.334 4.63-4.233 7.673-10.186 7.673-17.861 0-13.232-9.923-20.243-18.39-22.227v-.397c9.261-3.31 15.083-10.85 15.083-19.583zm-8.865 42.075c0 12.964-10.981 17.332-22.889 17.332-4.101 0-7.277-.134-9.66-.53v-34.002h9.528c12.569 0 23.02 5.16 23.02 17.2zM97.38 366.953H86.928v-28.841c1.853-.396 4.896-.795 10.188-.795 11.644 0 19.449 4.233 19.449 14.554 0 8.6-7.144 15.082-19.184 15.082zm107.309 18.789c0-19.45-12.437-32.813-30.827-32.813-17.597 0-31.754 12.57-31.754 33.87 0 20.243 13.495 32.945 30.695 32.945 15.348 0 31.886-10.318 31.886-34.002zm-50.674.661c0-12.04 5.955-24.741 19.582-24.741 13.76 0 19.184 13.628 19.184 24.476 0 14.424-8.335 24.876-19.448 24.876-11.379 0-19.318-10.586-19.318-24.61zm107.97 21.435l.662 10.452h10.32c-.396-5.027-.53-10.849-.53-17.597v-46.441h-11.643v39.165c0 2.25-.396 4.365-1.058 5.953-2.114 5.292-7.54 10.717-15.346 10.717-10.452 0-14.29-8.336-14.29-20.508v-35.327H218.46v37.443c0 22.36 12.04 28.049 22.096 28.049 11.377 0 18.257-6.746 21.166-11.906h.266zm39.834-40.885h-.396l-.53-12.701h-10.187c.396 5.956.53 12.439.53 19.98v44.058h11.641v-34.136c0-1.853.134-3.838.399-5.423 1.585-8.733 7.407-14.82 15.612-14.82 1.586 0 2.777 0 3.97.265v-10.982c-1.061-.131-1.985-.265-3.177-.265-7.806 0-14.95 5.426-17.862 14.024zm93.28-35.041c9.35-1.102 15.14-6.951 17.731-11.543h.26l.652 10.308h10.18c-.392-4.96-.523-10.7-.523-17.354v-45.801h-11.483v38.624c0 2.218-.391 4.306-1.043 5.872-2.088 5.22-7.44 10.568-15.137 10.568-10.308 0-14.093-8.22-14.093-20.225v-34.84H370.16v36.928c0 9.294 2.122 15.64 5.304 19.904h-.473v34.928h-.265c-2.911-4.368-8.998-7.278-17.07-7.278-15.478 0-29.106 12.701-28.975 34.534 0 20.109 12.305 33.207 27.653 33.207 8.336 0 16.274-3.704 20.242-10.849h.4l.792 9.395h17.862c-.265-4.366-.53-12.04-.53-19.316v-67.062zm-20.108 57.534c0 1.588-.134 3.176-.399 4.632-1.19 5.688-5.953 9.657-11.775 9.657-8.334 0-13.76-6.88-13.76-17.862 0-10.187 4.631-18.39 13.894-18.39 6.218 0 10.583 4.5 11.775 9.791.265 1.192.265 2.646.265 3.704v8.468zm66.693-37.443c-20.904 0-34.666 13.362-34.666 34.4 0 20.904 14.555 33.34 33.475 33.34 17.331 0 34.135-10.848 34.135-34.531 0-19.581-13.231-33.21-32.944-33.21zm-.661 53.32c-8.602 0-13.232-8.334-13.232-19.45 0-9.525 3.706-19.447 13.232-19.447 9.129 0 12.833 9.79 12.833 19.316 0 11.775-4.896 19.581-12.833 19.581zm83.757-53.187c-10.848 0-17.331 6.219-19.977 10.452h-.397l-.926-8.997h-17.466c.265 5.821.53 12.57.53 20.641v44.058h20.112v-37.312c0-1.85.131-3.704.661-5.027 1.455-3.703 4.762-7.54 10.319-7.54 7.278 0 10.189 5.687 10.189 14.024v35.855h20.109v-38.236c0-19.054-9.922-27.918-23.154-27.918zM122.52 468.464v-.265c10.056-3.838 14.686-11.114 14.686-18.92 0-8.205-4.366-14.29-10.585-17.597-6.614-3.837-14.157-5.029-26.46-5.029-10.189 0-20.773.927-26.065 1.853v87.588c4.498.661 11.908 1.323 21.83 1.323 17.73 0 28.578-2.911 35.062-8.072 5.557-4.498 9.261-10.848 9.261-19.05 0-11.38-7.54-19.185-17.729-21.831zm-28.446-26.595c1.588-.265 4.101-.53 8.6-.53 9.129 0 14.29 3.572 14.29 10.32 0 6.615-5.557 10.983-16.274 10.983h-6.616v-20.773zm7.806 60.597c-3.44 0-5.82 0-7.806-.265v-25.138h6.88c10.055 0 18.126 3.572 18.126 12.436 0 9.394-8.071 12.967-17.2 12.967zm51.477 14.024h20.11v-93.937h-20.11v93.937zm90.237-38.236c0-15.35-6.747-28.05-28.314-28.05-11.775 0-20.639 3.309-25.138 5.82l3.705 12.968c4.234-2.646 11.246-4.896 17.861-4.896 9.923 0 11.776 4.896 11.776 8.468v.795c-22.89 0-37.972 7.938-37.972 24.742 0 10.318 7.806 19.843 20.904 19.843 7.674 0 14.29-2.777 18.524-7.937h.396l1.19 6.483h18.127c-.794-3.572-1.059-9.525-1.059-15.612v-22.624zm-19.448 14.686c0 1.19-.133 2.381-.398 3.439-1.323 4.102-5.557 7.41-10.452 7.41-4.498 0-7.939-2.515-7.939-7.675 0-7.673 8.204-10.187 18.789-10.187v7.013zm68.94-41.81c-10.586 0-17.996 5.955-21.17 11.908h-.264l-.662-10.585h-10.32c.396 5.294.53 10.585.53 17.334v46.703h11.64v-38.5c0-1.985.266-3.97.796-5.426 2.116-6.483 8.071-11.906 15.613-11.906 10.982 0 14.817 8.599 14.817 18.92v36.912h11.643v-38.104c0-21.962-13.759-27.256-22.623-27.256zm71.321 9.263c6.352 0 10.717 1.588 13.494 3.042l2.649-8.864c-3.176-1.72-9.263-3.441-16.143-3.441-20.904 0-34.4 14.423-34.4 34.135 0 19.582 12.57 32.68 31.886 32.68 8.601 0 15.347-2.248 18.392-3.704l-1.985-8.733c-3.307 1.457-7.675 3.045-14.29 3.045-12.7 0-22.226-9.13-22.226-23.95 0-13.23 7.937-24.21 22.623-24.21zM295.53 312.54c0 10.177 7.7 19.572 20.62 19.572 7.568 0 14.09-2.74 18.268-7.829h.39l1.175 6.394h17.877c-.783-3.523-1.046-9.394-1.046-15.397v-22.313c0-15.137-6.654-27.664-27.922-27.664-11.614 0-20.357 3.262-24.794 5.741l3.655 12.789c4.174-2.61 11.09-4.829 17.616-4.829 9.786 0 11.612 4.829 11.612 8.351v.783c-22.574 0-37.45 7.83-37.45 24.402zm38.105-12.005v6.914c0 1.175-.132 2.351-.392 3.394-1.305 4.046-5.482 7.306-10.308 7.306-4.437 0-7.831-2.477-7.831-7.566 0-7.57 8.091-10.048 18.53-10.048zm120.677-62.504H442.83v92.646h11.482v-92.646z" fill="#fff"/></svg>